# xmcd
#
# Track frame offsets:
#	150
#	15311
#	31399
#	46879
#	57519
#	72270
#	85798
#	100135
#	112676
#	126050
#	140996
#
# Disc length: 2048 seconds
#
# Revision: 0
# Processed by: cddbd v1.5.1PL0 Copyright (c) Steve Scherf et al.
# Submitted via: dBpowerAMP V4.0
#
DISCID=8c07fe0b
DTITLE=Merle Haggard - Let Me Tell You About A Song
DYEAR=1972
DGENRE=Country
TTITLE0=Daddy Frank The Guitar Man
TTITLE1=They're Tearin' The Labor Camps Down
TTITLE2=The Man Who Picked The Wildwood Flower
TTITLE3=Recitation: The Proudest Fiddle In The World (Bonnie Owens)
TTITLE4=Bill Woods From Bakersfield
TTITLE5=Old Doc Brown
TTITLE6=Grandma Harp
TTITLE7=Turnin' Off A Memory
TTITLE8=Irma Jackson
TTITLE9=The Funeral
TTITLE10=Bring It On Down To My House Honey
EXTD=Submitted faithfully by +Sound Man+\nPlease visit my Merle Haggard Discography site at:\nhttp://www.angelfire.com/stars4/anxietyfriend/merlehaggard.htm
EXTT0=
EXTT1=
EXTT2=
EXTT3=
EXTT4=
EXTT5=
EXTT6=
EXTT7=
EXTT8=
EXTT9=
EXTT10=
PLAYORDER=
